<svg width="410" height="384" viewBox="0 0 410 384" fill="none" xmlns="http://www.w3.org/2000/svg">
<path d="M63.5821 101.317L46.0415 142.687L37.3261 143.161L55.7108 101.254L63.5821 101.317Z" stroke="#E74C3C" stroke-opacity="0.19" stroke-width="1.39746"/>
<path d="M51.1719 101.683L33.6312 143.052L24.9159 143.526L43.3005 101.62L51.1719 101.683Z" stroke="#E74C3C" stroke-opacity="0.19" stroke-width="1.39746"/>
<path d="M342.719 171.117L405.904 197.637L406.611 210.863L343.405 183.954L342.719 171.117Z" stroke="#999999" stroke-opacity="0.21" stroke-width="1.51921"/>
<path d="M342.095 152.537L405.281 179.057L405.987 192.284L342.781 165.375L342.095 152.537Z" stroke="#999999" stroke-opacity="0.21" stroke-width="1.51921"/>
<path d="M288.752 366.949L288.228 366.612L288 366.945L288.224 367.281L288.752 366.949ZM295.189 357.51L295.717 357.178L295.194 356.396L294.665 357.173L295.189 357.51ZM296.749 359.846L297.263 360.198L297.509 359.861L297.277 359.514L296.749 359.846ZM292.011 366.352L291.497 365.999L290.588 367.248L292.133 366.951L292.011 366.352ZM300.062 364.805L300.589 364.472L300.358 364.126L299.94 364.206L300.062 364.805ZM301.622 367.141L301.725 367.743L302.672 367.59L302.15 366.808L301.622 367.141ZM290.121 368.998L289.593 369.33L289.817 369.666L290.224 369.6L290.121 368.998ZM289.276 367.286L295.714 357.847L294.665 357.173L288.228 366.612L289.276 367.286ZM294.662 357.842L296.222 360.178L297.277 359.514L295.717 357.178L294.662 357.842ZM296.236 359.493L291.497 365.999L292.524 366.705L297.263 360.198L296.236 359.493ZM292.133 366.951L300.184 365.404L299.94 364.206L291.889 365.753L292.133 366.951ZM299.534 365.137L301.094 367.473L302.15 366.808L300.589 364.472L299.534 365.137ZM301.519 366.539L290.017 368.395L290.224 369.6L301.725 367.743L301.519 366.539ZM290.648 368.666L289.279 366.617L288.224 367.281L289.593 369.33L290.648 368.666ZM307.436 354.339L307.21 354.909L309.017 355.584L307.963 354.007L307.436 354.339ZM303.727 348.786L303.385 348.274L302.857 348.606L303.199 349.119L303.727 348.786ZM306.006 347.351L306.533 347.019L306.191 346.507L305.664 346.839L306.006 347.351ZM315.587 361.695L315.929 362.207L316.457 361.875L316.115 361.363L315.587 361.695ZM313.308 363.13L312.781 363.462L313.123 363.975L313.65 363.642L313.308 363.13ZM312.323 361.655L312.85 361.322L311.786 359.73L311.694 361.626L312.323 361.655ZM305.741 363.965L305.596 364.56L305.603 364.561L305.61 364.562L305.741 363.965ZM310.51 360.962L311.125 361.089L311.127 361.082L310.51 360.962ZM307.376 356.269L307.238 356.865L307.245 356.866L307.376 356.269ZM302.606 359.273L303.221 359.4L303.223 359.394L302.606 359.273ZM307.963 354.007L304.254 348.454L303.199 349.119L306.908 354.671L307.963 354.007ZM304.069 349.298L306.348 347.863L305.664 346.839L303.385 348.274L304.069 349.298ZM305.478 347.683L315.06 362.027L316.115 361.363L306.533 347.019L305.478 347.683ZM315.245 361.183L312.965 362.617L313.65 363.642L315.929 362.207L315.245 361.183ZM313.836 362.798L312.85 361.322L311.795 361.987L312.781 363.462L313.836 362.798ZM311.694 361.626C311.622 363.111 310.902 364.296 309.45 365.21L310.135 366.235C311.891 365.129 312.857 363.601 312.95 361.683L311.694 361.626ZM309.45 365.21C308.148 366.029 306.74 366.264 305.181 365.909L304.895 367.098C306.777 367.527 308.538 367.24 310.135 366.235L309.45 365.21ZM305.181 365.909C303.628 365.556 302.395 364.701 301.465 363.31L300.41 363.974C301.506 365.615 303.007 366.669 304.895 367.098L305.181 365.909ZM301.465 363.31C300.535 361.918 300.235 360.477 300.537 358.955L299.301 358.725C298.935 360.573 299.314 362.334 300.41 363.974L301.465 363.31ZM300.537 358.955C300.838 357.429 301.633 356.276 302.935 355.456L302.251 354.431C300.654 355.437 299.666 356.881 299.301 358.725L300.537 358.955ZM302.935 355.456C304.39 354.54 305.794 354.38 307.21 354.909L307.662 353.77C305.829 353.084 304.004 353.327 302.251 354.431L302.935 355.456ZM305.61 364.562C306.828 364.814 307.997 364.582 309.083 363.898L308.399 362.873C307.572 363.394 306.74 363.548 305.872 363.368L305.61 364.562ZM309.083 363.898C310.169 363.214 310.866 362.272 311.125 361.089L309.895 360.835C309.71 361.678 309.227 362.352 308.399 362.873L309.083 363.898ZM311.127 361.082C311.375 359.887 311.125 358.741 310.413 357.675L309.358 358.34C309.906 359.159 310.073 359.982 309.894 360.841L311.127 361.082ZM310.413 357.675C309.702 356.609 308.729 355.925 307.507 355.672L307.245 356.866C308.111 357.046 308.811 357.52 309.358 358.34L310.413 357.675ZM307.514 355.673C306.286 355.406 305.109 355.63 304.019 356.316L304.704 357.341C305.527 356.822 306.36 356.673 307.238 356.865L307.514 355.673ZM304.019 356.316C302.929 357.003 302.239 357.954 301.99 359.152L303.223 359.394C303.4 358.538 303.88 357.859 304.704 357.341L304.019 356.316ZM301.991 359.146C301.731 360.331 301.977 361.473 302.689 362.539L303.744 361.874C303.197 361.055 303.037 360.241 303.221 359.4L301.991 359.146ZM302.689 362.539C303.393 363.593 304.369 364.278 305.596 364.56L305.885 363.371C304.989 363.166 304.281 362.678 303.744 361.874L302.689 362.539ZM310.205 347.763L310.059 348.357L310.075 348.36L310.09 348.363L310.205 347.763ZM308.878 345.776L309.493 345.903L309.495 345.895L309.496 345.888L308.878 345.776ZM310.946 344.473L310.8 345.067L310.807 345.069L310.815 345.071L310.946 344.473ZM320.523 358.586L320.865 359.099L321.393 358.767L321.051 358.254L320.523 358.586ZM318.244 360.022L317.717 360.354L318.059 360.866L318.586 360.534L318.244 360.022ZM311.4 349.776L311.058 349.264L310.53 349.596L310.873 350.108L311.4 349.776ZM313.68 348.341L314.207 348.009L313.865 347.496L313.337 347.829L313.68 348.341ZM311.638 346.347C311.573 346.64 311.423 346.85 311.171 347.01L311.855 348.034C312.391 347.697 312.735 347.208 312.868 346.601L311.638 346.347ZM311.171 347.01C310.918 347.169 310.647 347.222 310.322 347.163L310.09 348.363C310.72 348.478 311.321 348.371 311.855 348.034L311.171 347.01ZM310.351 347.169C310.029 347.095 309.805 346.938 309.641 346.693L308.585 347.357C308.932 347.876 309.436 348.213 310.059 348.357L310.351 347.169ZM309.641 346.693C309.476 346.447 309.428 346.196 309.493 345.903L308.263 345.648C308.129 346.255 308.238 346.837 308.585 347.357L309.641 346.693ZM309.496 345.888C309.554 345.588 309.703 345.372 309.966 345.206L309.282 344.182C308.73 344.53 308.381 345.035 308.26 345.663L309.496 345.888ZM309.966 345.206C310.23 345.04 310.495 344.996 310.8 345.067L311.092 343.879C310.452 343.731 309.835 343.834 309.282 344.182L309.966 345.206ZM310.815 345.071C311.118 345.133 311.334 345.278 311.498 345.523L312.553 344.859C312.206 344.339 311.702 344.006 311.077 343.876L310.815 345.071ZM311.498 345.523C311.656 345.761 311.709 346.022 311.638 346.347L312.868 346.601C313.004 345.981 312.905 345.386 312.553 344.859L311.498 345.523ZM320.181 358.074L317.902 359.51L318.586 360.534L320.865 359.099L320.181 358.074ZM318.772 359.69L311.928 349.444L310.873 350.108L317.717 360.354L318.772 359.69ZM311.742 350.289L314.022 348.853L313.337 347.829L311.058 349.264L311.742 350.289ZM313.152 348.673L319.996 358.919L321.051 358.254L314.207 348.009L313.152 348.673ZM325.748 351.803L325.372 352.292L326.743 353.289L326.362 351.667L325.748 351.803ZM323.481 342.17L323.139 341.657L322.769 341.889L322.868 342.305L323.481 342.17ZM325.971 340.601L326.587 340.478L326.401 339.603L325.629 340.089L325.971 340.601ZM328.699 353.439L329.041 353.951L329.402 353.724L329.315 353.315L328.699 353.439ZM326.061 355.099L325.694 355.595L326.043 355.839L326.403 355.612L326.061 355.099ZM315.102 347.445L314.76 346.933L313.988 347.419L314.735 347.941L315.102 347.445ZM317.593 345.877L317.969 345.388L317.618 345.133L317.25 345.365L317.593 345.877ZM326.362 351.667L324.094 342.034L322.868 342.305L325.135 351.94L326.362 351.667ZM323.823 342.682L326.313 341.113L325.629 340.089L323.139 341.657L323.823 342.682ZM325.355 340.724L328.083 353.562L329.315 353.315L326.587 340.478L325.355 340.724ZM328.357 352.926L325.719 354.587L326.403 355.612L329.041 353.951L328.357 352.926ZM326.428 354.604L315.469 346.95L314.735 347.941L325.694 355.595L326.428 354.604ZM315.444 347.957L317.935 346.389L317.25 345.365L314.76 346.933L315.444 347.957ZM317.215 346.366L325.372 352.292L326.125 351.314L317.969 345.388L317.215 346.366ZM326.898 340.862L326.37 341.194L326.602 341.541L327.02 341.461L326.898 340.862ZM325.338 338.526L325.235 337.924L324.288 338.076L324.81 338.858L325.338 338.526ZM336.839 336.668L337.367 336.336L337.143 336L336.736 336.066L336.839 336.668ZM338.208 338.717L338.733 339.054L338.96 338.721L338.736 338.385L338.208 338.717ZM331.77 348.156L331.243 348.489L331.765 349.271L332.295 348.493L331.77 348.156ZM330.21 345.82L329.697 345.468L329.451 345.806L329.683 346.152L330.21 345.82ZM334.949 339.315L335.463 339.667L336.372 338.419L334.827 338.716L334.949 339.315ZM327.426 340.53L325.865 338.194L324.81 338.858L326.37 341.194L327.426 340.53ZM325.441 339.128L336.942 337.271L336.736 336.066L325.235 337.924L325.441 339.128ZM336.311 337.001L337.681 339.05L338.736 338.385L337.367 336.336L336.311 337.001ZM337.684 338.38L331.247 347.819L332.295 348.493L338.733 339.054L337.684 338.38ZM332.298 347.824L330.738 345.488L329.683 346.152L331.243 348.489L332.298 347.824ZM330.724 346.173L335.463 339.667L334.436 338.962L329.697 345.468L330.724 346.173ZM334.827 338.716L326.776 340.263L327.02 341.461L335.071 339.914L334.827 338.716Z" fill="#E74C3C" fill-opacity="0.3"/>
<path d="M87.675 316.577L88.816 316.184L88.558 315.387L87.744 315.339L87.675 316.577ZM90.933 326.628L90.827 327.863L92.656 328.03L92.074 326.236L90.933 326.628ZM49.249 322.822L48.107 323.214L48.357 323.985L49.143 324.056L49.249 322.822ZM46.392 314.005L45.586 313.083L45 313.627L45.25 314.397L46.392 314.005ZM77.501 285.186L78.642 284.794L78.061 283L76.695 284.265L77.501 285.186ZM80.759 295.239L81.536 296.185L82.158 295.643L81.9 294.846L80.759 295.239ZM58.268 314.824L57.491 313.877L55.189 315.881L58.198 316.061L58.268 314.824ZM86.533 316.969L89.791 327.02L92.074 326.236L88.816 316.184L86.533 316.969ZM91.039 325.394L49.356 321.588L49.143 324.056L90.827 327.863L91.039 325.394ZM50.391 322.43L47.533 313.613L45.25 314.397L48.107 323.214L50.391 322.43ZM47.197 314.926L78.305 286.108L76.695 284.265L45.586 313.083L47.197 314.926ZM76.359 285.579L79.617 295.631L81.9 294.846L78.642 284.794L76.359 285.579ZM79.981 294.292L57.491 313.877L59.045 315.77L81.536 296.185L79.981 294.292ZM58.198 316.061L87.605 317.814L87.744 315.339L58.338 313.586L58.198 316.061Z" fill="#999999" fill-opacity="0.15"/>
</svg>
